<?xml version="1.0" standalone="no"?>
<!DOCTYPE svg PUBLIC "-//W3C//DTD SVG 20010904//EN"
 "http://www.w3.org/TR/2001/REC-SVG-20010904/DTD/svg10.dtd">
<svg version="1.0" xmlns="http://www.w3.org/2000/svg"
 width="64.000000pt" height="64.000000pt" viewBox="0 0 64.000000 64.000000"
 preserveAspectRatio="xMidYMid meet">

<g transform="translate(0.000000,64.000000) scale(0.100000,-0.100000)"
fill="#000000" stroke="none">
<path d="M234 571 c-63 -38 -102 -119 -89 -184 17 -81 94 -146 174 -147 78 0
159 67 176 147 13 66 -32 155 -96 188 -40 21 -127 19 -165 -4z m156 -13 c147
-75 94 -298 -70 -298 -120 0 -197 132 -138 235 25 43 93 85 138 85 14 0 46
-10 70 -22z"/>
<path d="M310 525 c0 -9 -10 -15 -26 -15 -24 0 -25 -2 -22 -47 3 -41 6 -48 26
-51 18 -3 22 -10 22 -38 0 -27 -4 -34 -20 -34 -11 0 -20 -4 -20 -10 0 -5 9
-10 19 -10 11 0 22 -6 24 -12 4 -10 8 -10 14 -2 4 7 17 13 28 15 17 4 20 12
20 54 0 44 -3 50 -22 53 -19 3 -23 10 -23 37 0 27 4 34 23 38 l22 4 -22 2
c-13 0 -23 8 -23 16 0 8 -4 15 -10 15 -5 0 -10 -7 -10 -15z m0 -60 c0 -24 -5
-35 -15 -35 -10 0 -15 11 -15 35 0 24 5 35 15 35 10 0 15 -11 15 -35z m50 -90
c0 -24 -5 -35 -15 -35 -10 0 -15 11 -15 35 0 24 5 35 15 35 10 0 15 -11 15
-35z"/>
<path d="M484 231 c-42 -34 -51 -37 -60 -24 -9 14 -75 22 -212 24 -17 0 -32 5
-32 10 0 5 -27 9 -60 9 l-60 0 0 -105 0 -105 60 0 c52 0 60 2 60 19 0 16 10
19 88 24 48 2 110 12 139 21 67 21 175 109 171 140 -5 35 -40 30 -94 -13z m75
7 c0 -7 -23 -32 -50 -55 -62 -54 -153 -83 -255 -83 l-74 0 0 55 c0 50 2 55 25
61 14 4 46 1 70 -6 27 -8 62 -10 90 -5 42 6 46 5 43 -12 -2 -12 -17 -21 -46
-27 -23 -5 -42 -13 -42 -17 0 -25 112 16 166 61 50 40 75 50 73 28z m-391 -90
l-3 -83 -42 -3 -43 -3 0 85 0 86 45 0 46 0 -3 -82z"/>
</g>
</svg>
