<?xml version="1.0" standalone="no"?>
<!DOCTYPE svg PUBLIC "-//W3C//DTD SVG 20010904//EN"
 "http://www.w3.org/TR/2001/REC-SVG-20010904/DTD/svg10.dtd">
<svg version="1.0" xmlns="http://www.w3.org/2000/svg"
 width="128.000000pt" height="128.000000pt" viewBox="0 0 128.000000 128.000000"
 preserveAspectRatio="xMidYMid meet">

<g transform="translate(0.000000,128.000000) scale(0.100000,-0.100000)"
fill="#000000" stroke="none">
<path d="M77 1103 c-4 -3 -7 -158 -7 -342 0 -325 -1 -337 -20 -349 -15 -9 -20
-23 -20 -55 0 -24 5 -48 12 -55 7 -7 45 -12 98 -12 l85 -1 20 -41 c25 -53 79
-83 130 -74 43 8 100 57 109 91 l6 25 169 0 170 0 23 -42 c56 -103 190 -97
234 9 14 32 15 33 78 33 76 0 88 11 84 72 -2 33 -8 45 -25 53 -22 9 -23 15
-23 120 l0 110 -91 133 -90 132 -124 0 -124 0 -3 98 -3 97 -341 3 c-187 1
-343 -1 -347 -5z m223 -298 l0 -265 -95 0 -95 0 0 265 0 265 95 0 95 0 0 -265z
m200 0 l0 -265 -80 0 -80 0 0 265 0 265 80 0 80 0 0 -265z m240 0 l0 -265
-100 0 -100 0 0 265 0 265 100 0 100 0 0 -265z m343 -49 l77 -114 0 -110 0
-110 -195 0 -195 0 0 224 0 224 118 0 117 -1 78 -113z m-345 -293 l-3 -38
-312 -2 -313 -1 0 39 0 39 316 0 315 0 -3 -37z m-310 -99 c25 -28 30 -88 9
-115 -30 -39 -96 -51 -134 -24 -28 20 -46 75 -34 106 26 69 111 87 159 33z
m582 21 c59 -30 68 -98 21 -146 -78 -77 -200 14 -147 110 15 26 51 50 79 51
10 0 31 -7 47 -15z m-760 -5 c0 -5 -5 -21 -12 -35 -11 -24 -15 -25 -90 -25
l-78 0 0 35 0 35 90 0 c50 0 90 -4 90 -10z m605 -7 c-4 -10 -10 -26 -12 -35
-5 -16 -22 -18 -177 -18 l-172 0 -17 35 -17 35 201 0 c188 0 201 -1 194 -17z
m355 -18 l0 -35 -59 0 c-47 0 -60 3 -64 18 -2 9 -8 25 -12 35 -6 15 0 17 64
17 l71 0 0 -35z"/>
<path d="M834 807 c-3 -8 -4 -49 -2 -93 l3 -79 118 -3 c83 -2 117 1 117 9 0 6
-24 49 -52 95 l-53 84 -63 0 c-43 0 -64 -4 -68 -13z m134 -59 c62 -91 63 -88
-23 -88 l-75 0 0 65 0 65 35 0 c29 0 38 -6 63 -42z"/>
<path d="M327 359 c-39 -23 -41 -86 -3 -111 20 -14 63 -8 79 10 50 55 -13 138
-76 101z m60 -45 c8 -21 -19 -46 -40 -38 -17 6 -23 35 -10 47 12 13 44 7 50
-9z"/>
<path d="M926 349 c-48 -38 -20 -109 43 -109 55 0 81 70 41 110 -26 26 -51 25
-84 -1z m67 -33 c8 -21 -17 -50 -37 -43 -16 6 -22 38 -9 50 11 12 41 7 46 -7z"/>
</g>
</svg>
